<svg width="188" height="49" viewBox="0 0 188 49" fill="none" xmlns="http://www.w3.org/2000/svg">
<rect y="28.1489" width="10.3867" height="10.4255" rx="5.19337" fill="#302F2D"/>
<rect x="25.9668" y="28.1489" width="10.3867" height="10.4255" rx="5.19337" fill="#302F2D"/>
<rect x="9.34814" y="17.7234" width="17.6575" height="10.4255" rx="5.21277" fill="#302F2D"/>
<path d="M44.4346 23.2458C44.4346 21.6736 44.8126 20.237 45.5688 18.9359C46.352 17.6077 47.3917 16.5641 48.6879 15.8051C50.0112 15.019 51.456 14.626 53.0223 14.626H59.7062C61.2725 14.626 62.7038 15.019 64.0001 15.8051C65.3233 16.5641 66.3631 17.6077 67.1192 18.9359C67.9024 20.237 68.294 21.6736 68.294 23.2458V38.5745H60.8809V23.2458C60.8809 22.9205 60.7594 22.6495 60.5164 22.4326C60.3003 22.1887 60.0303 22.0667 59.7062 22.0667H53.0223C52.6983 22.0667 52.4147 22.1887 52.1717 22.4326C51.9556 22.6495 51.8476 22.9205 51.8476 23.2458V38.5745H44.4346V23.2458Z" fill="#302F2D"/>
<path d="M78.4982 31.1338H85.1821C85.5062 31.1338 85.7762 31.0253 85.9923 30.8085C86.2353 30.5645 86.3568 30.2799 86.3568 29.9546V23.2458C86.3568 22.9205 86.2353 22.6495 85.9923 22.4326C85.7762 22.1887 85.5062 22.0667 85.1821 22.0667H78.4982C78.1742 22.0667 77.8906 22.1887 77.6476 22.4326C77.4315 22.6495 77.3235 22.9205 77.3235 23.2458V43.1283H69.9105V23.2458C69.9105 21.6736 70.2886 20.237 71.0447 18.9359C71.8279 17.6077 72.8676 16.5641 74.1639 15.8051C75.4871 15.019 76.9319 14.626 78.4982 14.626H85.1821C86.7484 14.626 88.1797 15.019 89.476 15.8051C90.7993 16.5641 91.839 17.6077 92.5951 18.9359C93.3783 20.237 93.7699 21.6736 93.7699 23.2458V29.9546C93.7699 31.5268 93.3783 32.977 92.5951 34.3052C91.839 35.6063 90.7993 36.6499 89.476 37.436C88.1797 38.195 86.7484 38.5745 85.1821 38.5745H78.4982V31.1338Z" fill="#302F2D"/>
<path d="M110.618 14.626C112.185 14.626 113.616 15.019 114.912 15.8051C116.236 16.5641 117.275 17.6077 118.031 18.9359C118.815 20.237 119.206 21.6736 119.206 23.2458V29.9546C119.206 31.5268 118.815 32.977 118.031 34.3052C117.275 35.6063 116.236 36.6499 114.912 37.436C113.616 38.195 112.185 38.5745 110.618 38.5745H103.975C102.409 38.5745 100.964 38.195 99.6407 37.436C98.3445 36.6499 97.3047 35.6063 96.5216 34.3052C95.7384 32.977 95.3468 31.5268 95.3468 29.9546V23.2458C95.3468 21.6736 95.7384 20.237 96.5216 18.9359C97.3047 17.6077 98.3445 16.5641 99.6407 15.8051C100.964 15.019 102.409 14.626 103.975 14.626H110.618ZM103.975 22.0667C103.651 22.0667 103.367 22.1887 103.124 22.4326C102.881 22.6495 102.76 22.9205 102.76 23.2458V29.9546C102.76 30.2799 102.881 30.5645 103.124 30.8085C103.367 31.0253 103.651 31.1338 103.975 31.1338H110.618C110.943 31.1338 111.213 31.0253 111.429 30.8085C111.672 30.5645 111.793 30.2799 111.793 29.9546V23.2458C111.793 22.9205 111.672 22.6495 111.429 22.4326C111.213 22.1887 110.943 22.0667 110.618 22.0667H103.975Z" fill="#302F2D"/>
<path d="M129.451 38.5745C127.885 38.5745 126.44 38.195 125.117 37.436C123.793 36.6499 122.74 35.6063 121.957 34.3052C121.201 32.977 120.823 31.5268 120.823 29.9546V23.2458C120.823 21.6736 121.201 20.237 121.957 18.9359C122.74 17.6077 123.793 16.5641 125.117 15.8051C126.44 15.019 127.885 14.626 129.451 14.626H140.996V22.0667H129.451C129.1 22.0667 128.803 22.1887 128.56 22.4326C128.344 22.6495 128.236 22.9205 128.236 23.2458V29.9546C128.236 30.2799 128.344 30.5645 128.56 30.8085C128.803 31.0253 129.1 31.1338 129.451 31.1338H140.996V38.5745H129.451Z" fill="#302F2D"/>
<path d="M142.376 14.626H161.941V22.0667H155.865V38.5745H148.452V22.0667H142.376V14.626Z" fill="#302F2D"/>
<path d="M178.541 14.626C180.107 14.626 181.539 15.019 182.835 15.8051C184.158 16.5641 185.198 17.6077 185.954 18.9359C186.737 20.237 187.129 21.6736 187.129 23.2458V29.9546C187.129 31.5268 186.737 32.977 185.954 34.3052C185.198 35.6063 184.158 36.6499 182.835 37.436C181.539 38.195 180.107 38.5745 178.541 38.5745H171.898C170.331 38.5745 168.887 38.195 167.563 37.436C166.267 36.6499 165.227 35.6063 164.444 34.3052C163.661 32.977 163.269 31.5268 163.269 29.9546V23.2458C163.269 21.6736 163.661 20.237 164.444 18.9359C165.227 17.6077 166.267 16.5641 167.563 15.8051C168.887 15.019 170.331 14.626 171.898 14.626H178.541ZM171.898 22.0667C171.574 22.0667 171.29 22.1887 171.047 22.4326C170.804 22.6495 170.682 22.9205 170.682 23.2458V29.9546C170.682 30.2799 170.804 30.5645 171.047 30.8085C171.29 31.0253 171.574 31.1338 171.898 31.1338H178.541C178.865 31.1338 179.135 31.0253 179.351 30.8085C179.594 30.5645 179.716 30.2799 179.716 29.9546V23.2458C179.716 22.9205 179.594 22.6495 179.351 22.4326C179.135 22.1887 178.865 22.0667 178.541 22.0667H171.898Z" fill="#302F2D"/>
</svg>
